<svg width="511" height="64" viewBox="0 0 511 64" fill="none" xmlns="http://www.w3.org/2000/svg">
<path d="M317 62.5927C365 20.1927 463.667 30.9261 507 41.5927C493.4 65.5928 374.667 65.5927 317 62.5927Z" fill="#EBD96B"/>
<path d="M35.04 8.016L22.848 31.68V42H12.192V31.68L0 8.016H12.192L17.616 20.064L23.04 8.016H35.04ZM53.2065 42.336C50.4865 42.336 48.0385 41.776 45.8625 40.656C43.6865 39.536 41.9745 37.936 40.7265 35.856C39.5105 33.744 38.9025 31.28 38.9025 28.464C38.9025 25.648 39.5105 23.2 40.7265 21.12C41.9745 19.008 43.6865 17.392 45.8625 16.272C48.0385 15.152 50.4865 14.592 53.2065 14.592C55.9265 14.592 58.3745 15.152 60.5505 16.272C62.7265 17.392 64.4225 19.008 65.6385 21.12C66.8865 23.2 67.5105 25.648 67.5105 28.464C67.5105 31.28 66.8865 33.744 65.6385 35.856C64.4225 37.936 62.7265 39.536 60.5505 40.656C58.3745 41.776 55.9265 42.336 53.2065 42.336ZM53.2065 33.12C54.1985 33.12 55.0305 32.736 55.7025 31.968C56.3745 31.168 56.7105 30 56.7105 28.464C56.7105 26.928 56.3745 25.776 55.7025 25.008C55.0305 24.208 54.1985 23.808 53.2065 23.808C52.2145 23.808 51.3825 24.208 50.7105 25.008C50.0385 25.776 49.7025 26.928 49.7025 28.464C49.7025 30 50.0225 31.168 50.6625 31.968C51.3345 32.736 52.1825 33.12 53.2065 33.12ZM102.394 14.928V42H91.7381V37.872C90.9061 39.152 89.7861 40.192 88.3781 40.992C87.0021 41.792 85.3541 42.192 83.4341 42.192C80.3301 42.192 77.8981 41.152 76.1381 39.072C74.4101 36.992 73.5461 34.176 73.5461 30.624V14.928H84.1541V29.28C84.1541 30.56 84.4901 31.584 85.1621 32.352C85.8661 33.088 86.7941 33.456 87.9461 33.456C89.1301 33.456 90.0581 33.088 90.7301 32.352C91.4021 31.584 91.7381 30.56 91.7381 29.28V14.928H102.394ZM129.047 14.736C132.151 14.736 134.567 15.776 136.295 17.856C138.055 19.936 138.935 22.752 138.935 26.304V42H128.327V27.648C128.327 26.368 127.975 25.36 127.271 24.624C126.599 23.856 125.687 23.472 124.535 23.472C123.351 23.472 122.423 23.856 121.751 24.624C121.079 25.36 120.743 26.368 120.743 27.648V42H110.087V14.928H120.743V19.056C121.575 17.776 122.679 16.736 124.055 15.936C125.463 15.136 127.127 14.736 129.047 14.736ZM156.18 14.592C157.94 14.592 159.46 14.96 160.74 15.696C162.02 16.4 162.996 17.376 163.668 18.624V14.928H174.276V41.52C174.276 44.048 173.812 46.352 172.884 48.432C171.956 50.512 170.452 52.176 168.372 53.424C166.324 54.672 163.684 55.296 160.452 55.296C156.1 55.296 152.644 54.272 150.084 52.224C147.556 50.208 146.116 47.456 145.764 43.968H156.228C156.516 45.376 157.668 46.08 159.684 46.08C160.932 46.08 161.908 45.76 162.612 45.12C163.316 44.48 163.668 43.28 163.668 41.52V38.304C162.996 39.552 162.02 40.544 160.74 41.28C159.46 41.984 157.94 42.336 156.18 42.336C154.068 42.336 152.164 41.792 150.468 40.704C148.772 39.584 147.428 37.984 146.436 35.904C145.476 33.792 144.996 31.312 144.996 28.464C144.996 25.616 145.476 23.152 146.436 21.072C147.428 18.96 148.772 17.36 150.468 16.272C152.164 15.152 154.068 14.592 156.18 14.592ZM163.668 28.464C163.668 27.024 163.3 25.904 162.564 25.104C161.828 24.304 160.884 23.904 159.732 23.904C158.58 23.904 157.636 24.304 156.9 25.104C156.164 25.904 155.796 27.024 155.796 28.464C155.796 29.904 156.164 31.024 156.9 31.824C157.636 32.624 158.58 33.024 159.732 33.024C160.884 33.024 161.828 32.624 162.564 31.824C163.3 31.024 163.668 29.904 163.668 28.464ZM184.725 8.016H195.285L189.621 22.176H182.613L184.725 8.016ZM215.009 42.336C212.449 42.336 210.177 41.92 208.193 41.088C206.241 40.256 204.689 39.104 203.537 37.632C202.385 36.16 201.729 34.496 201.569 32.64H211.793C211.921 33.44 212.257 34.032 212.801 34.416C213.377 34.8 214.097 34.992 214.961 34.992C215.505 34.992 215.937 34.88 216.257 34.656C216.577 34.4 216.737 34.096 216.737 33.744C216.737 33.136 216.401 32.704 215.729 32.448C215.057 32.192 213.921 31.904 212.321 31.584C210.369 31.2 208.753 30.784 207.473 30.336C206.225 29.888 205.121 29.12 204.161 28.032C203.233 26.944 202.769 25.44 202.769 23.52C202.769 21.856 203.201 20.352 204.065 19.008C204.961 17.632 206.273 16.56 208.001 15.792C209.729 14.992 211.825 14.592 214.289 14.592C217.937 14.592 220.785 15.488 222.833 17.28C224.913 19.072 226.161 21.408 226.577 24.288H217.121C216.961 23.552 216.625 22.992 216.113 22.608C215.601 22.192 214.913 21.984 214.049 21.984C213.505 21.984 213.089 22.096 212.801 22.32C212.513 22.512 212.369 22.816 212.369 23.232C212.369 23.776 212.705 24.192 213.377 24.48C214.049 24.736 215.121 25.008 216.593 25.296C218.545 25.68 220.193 26.112 221.537 26.592C222.881 27.072 224.049 27.904 225.041 29.088C226.033 30.24 226.529 31.84 226.529 33.888C226.529 35.488 226.065 36.928 225.137 38.208C224.209 39.488 222.865 40.496 221.105 41.232C219.377 41.968 217.345 42.336 215.009 42.336ZM268.674 8.016V16.464H255.33V21.168H264.93V29.184H255.33V42H244.674V8.016H268.674ZM273.724 28.464C273.724 25.616 274.204 23.152 275.164 21.072C276.156 18.96 277.5 17.36 279.196 16.272C280.892 15.152 282.796 14.592 284.908 14.592C286.668 14.592 288.188 14.96 289.468 15.696C290.748 16.4 291.724 17.376 292.396 18.624V14.928H303.004V42H292.396V38.304C291.724 39.552 290.748 40.544 289.468 41.28C288.188 41.984 286.668 42.336 284.908 42.336C282.796 42.336 280.892 41.792 279.196 40.704C277.5 39.584 276.156 37.984 275.164 35.904C274.204 33.792 273.724 31.312 273.724 28.464ZM292.396 28.464C292.396 27.024 292.028 25.904 291.292 25.104C290.556 24.304 289.612 23.904 288.46 23.904C287.308 23.904 286.364 24.304 285.628 25.104C284.892 25.904 284.524 27.024 284.524 28.464C284.524 29.904 284.892 31.024 285.628 31.824C286.364 32.624 287.308 33.024 288.46 33.024C289.612 33.024 290.556 32.624 291.292 31.824C292.028 31.024 292.396 29.904 292.396 28.464ZM324.397 31.872L328.717 14.928H340.045L331.021 42H317.725L308.701 14.928H320.029L324.397 31.872ZM358.616 42.336C355.896 42.336 353.448 41.776 351.272 40.656C349.096 39.536 347.384 37.936 346.136 35.856C344.92 33.744 344.312 31.28 344.312 28.464C344.312 25.648 344.92 23.2 346.136 21.12C347.384 19.008 349.096 17.392 351.272 16.272C353.448 15.152 355.896 14.592 358.616 14.592C361.336 14.592 363.784 15.152 365.96 16.272C368.136 17.392 369.832 19.008 371.048 21.12C372.296 23.2 372.92 25.648 372.92 28.464C372.92 31.28 372.296 33.744 371.048 35.856C369.832 37.936 368.136 39.536 365.96 40.656C363.784 41.776 361.336 42.336 358.616 42.336ZM358.616 33.12C359.608 33.12 360.44 32.736 361.112 31.968C361.784 31.168 362.12 30 362.12 28.464C362.12 26.928 361.784 25.776 361.112 25.008C360.44 24.208 359.608 23.808 358.616 23.808C357.624 23.808 356.792 24.208 356.12 25.008C355.448 25.776 355.112 26.928 355.112 28.464C355.112 30 355.432 31.168 356.072 31.968C356.744 32.736 357.592 33.12 358.616 33.12ZM407.803 14.928V42H397.147V37.872C396.315 39.152 395.195 40.192 393.787 40.992C392.411 41.792 390.763 42.192 388.843 42.192C385.739 42.192 383.307 41.152 381.547 39.072C379.819 36.992 378.955 34.176 378.955 30.624V14.928H389.563V29.28C389.563 30.56 389.899 31.584 390.571 32.352C391.275 33.088 392.203 33.456 393.355 33.456C394.539 33.456 395.467 33.088 396.139 32.352C396.811 31.584 397.147 30.56 397.147 29.28V14.928H407.803ZM426.152 19.92C427.24 18.352 428.568 17.104 430.136 16.176C431.704 15.216 433.336 14.736 435.032 14.736V26.112H432.008C429.992 26.112 428.504 26.464 427.544 27.168C426.616 27.872 426.152 29.12 426.152 30.912V42H415.496V14.928H426.152V19.92ZM446.159 12.768C444.303 12.768 442.815 12.272 441.695 11.28C440.575 10.288 440.015 9.04 440.015 7.536C440.015 6 440.575 4.736 441.695 3.744C442.815 2.72 444.303 2.208 446.159 2.208C447.983 2.208 449.455 2.72 450.575 3.744C451.695 4.736 452.255 6 452.255 7.536C452.255 9.04 451.695 10.288 450.575 11.28C449.455 12.272 447.983 12.768 446.159 12.768ZM451.439 14.928V42H440.783V14.928H451.439ZM475.979 32.928V42H471.947C464.523 42 460.811 38.304 460.811 30.912V23.808H457.451V14.928H460.811V8.4H471.467V14.928H475.883V23.808H471.467V31.104C471.467 31.744 471.611 32.208 471.899 32.496C472.219 32.784 472.731 32.928 473.435 32.928H475.979ZM509.126 28.224C509.126 28.96 509.078 29.664 508.982 30.336H491.846C492.006 32.672 492.982 33.84 494.774 33.84C495.926 33.84 496.758 33.312 497.27 32.256H508.55C508.166 34.176 507.35 35.904 506.102 37.44C504.886 38.944 503.334 40.144 501.446 41.04C499.59 41.904 497.542 42.336 495.302 42.336C492.614 42.336 490.214 41.776 488.102 40.656C486.022 39.536 484.39 37.936 483.206 35.856C482.054 33.744 481.478 31.28 481.478 28.464C481.478 25.648 482.054 23.2 483.206 21.12C484.39 19.008 486.022 17.392 488.102 16.272C490.214 15.152 492.614 14.592 495.302 14.592C497.99 14.592 500.374 15.152 502.454 16.272C504.566 17.36 506.198 18.928 507.35 20.976C508.534 23.024 509.126 25.44 509.126 28.224ZM498.326 25.68C498.326 24.784 498.038 24.112 497.462 23.664C496.886 23.184 496.166 22.944 495.302 22.944C493.414 22.944 492.31 23.856 491.99 25.68H498.326Z" fill="black"/>
</svg>
